<?xml version="1.0" standalone="no"?>
<!DOCTYPE svg PUBLIC "-//W3C//DTD SVG 20010904//EN"
 "http://www.w3.org/TR/2001/REC-SVG-20010904/DTD/svg10.dtd">
<svg version="1.0" xmlns="http://www.w3.org/2000/svg"
 width="700.000000pt" height="700.000000pt" viewBox="0 0 700.000000 700.000000"
 preserveAspectRatio="xMidYMid meet">
<metadata>
Created by potrace 1.11, written by Peter Selinger 2001-2013
</metadata>
<g transform="translate(0.000000,700.000000) scale(0.100000,-0.100000)"
fill="#000000" stroke="none">
<path d="M2191 5092 c-202 -33 -370 -122 -526 -277 -99 -100 -114 -118 -180
-219 -192 -297 -287 -639 -288 -1031 -1 -319 62 -601 194 -870 150 -304 378
-529 633 -622 136 -50 29 -47 1829 -50 1600 -3 1677 -3 1678 14 4 64 -6 299
-15 353 -2 14 -7 49 -10 78 -4 30 -15 95 -26 145 -115 523 -398 801 -880 864
-70 10 -290 9 -355 -1 -76 -12 -219 -62 -305 -107 -107 -57 -267 -178 -378
-286 l-93 -91 -58 86 c-148 222 -199 406 -166 596 19 110 90 270 178 402 l42
63 70 -71 c65 -66 266 -238 279 -238 3 0 25 -14 50 -31 149 -100 353 -162 536
-162 417 -1 709 134 899 416 71 105 155 316 177 441 2 17 9 47 14 66 8 31 14
70 26 175 5 46 14 190 18 283 2 53 -1 82 -8 83 -6 0 -742 1 -1635 2 -1272 2
-1641 -1 -1700 -11z"/>
</g>
</svg>
